# xmcd
#
# Track frame offsets:
#	150
#	13617
#	28107
#	37727
#	48615
#	59674
#	67763
#	79921
#	92155
#	104648
#
# Disc length: 1584 seconds
#
# Revision: 1
# Processed by: cddbd v1.5.2PL0 Copyright (c) Steve Scherf et al.
# Submitted via: audiograbber 1.83.01
#
DISCID=80062e0a
DTITLE=Booth Brothers - Trail to Paradise
DYEAR=1900
DGENRE=
TTITLE0=Cant be a cowboy
TTITLE1=Dont fence me in
TTITLE2=Up the winding trail
TTITLE3=At the end of the trail
TTITLE4=Trail to paradise
TTITLE5=Round up in the sky
TTITLE6=Tumbleweed
TTITLE7=Cool Water
TTITLE8=Too much to gain to lose
TTITLE9=Where no one stands alone
EXTD=
EXTT0=
EXTT1=
EXTT2=
EXTT3=
EXTT4=
EXTT5=
EXTT6=
EXTT7=
EXTT8=
EXTT9=
PLAYORDER=
